<mxfile host="Electron" modified="2024-03-12T06:42:43.014Z" agent="Mozilla/5.0 (X11; Linux x86_64) AppleWebKit/537.36 (KHTML, like Gecko) draw.io/23.1.5 Chrome/120.0.6099.109 Electron/28.1.0 Safari/537.36" etag="BkYDfbJaeJ6n6XXJoRqF" version="23.1.5" type="device">
  <diagram name="Page-1" id="bINPrWWKYaWzHOHRJIdD">
    <mxGraphModel dx="836" dy="539" grid="1" gridSize="10" guides="1" tooltips="1" connect="1" arrows="1" fold="1" page="1" pageScale="1" pageWidth="850" pageHeight="1100" math="0" shadow="0">
      <root>
        <mxCell id="0" />
        <mxCell id="1" parent="0" />
        <mxCell id="3ZL1Tjc2D25S1oqH2oYp-65" value="" style="rounded=0;whiteSpace=wrap;html=1;" vertex="1" parent="1">
          <mxGeometry x="160" y="60" width="520" height="420" as="geometry" />
        </mxCell>
        <mxCell id="3ZL1Tjc2D25S1oqH2oYp-42" value="" style="rounded=0;whiteSpace=wrap;html=1;fillColor=#d0cee2;strokeColor=#56517e;" vertex="1" parent="1">
          <mxGeometry x="180" y="105" width="200" height="330" as="geometry" />
        </mxCell>
        <mxCell id="3ZL1Tjc2D25S1oqH2oYp-3" value="" style="rounded=1;whiteSpace=wrap;html=1;" vertex="1" parent="1">
          <mxGeometry x="420" y="80" width="240" height="150" as="geometry" />
        </mxCell>
        <mxCell id="3ZL1Tjc2D25S1oqH2oYp-4" value="" style="verticalLabelPosition=bottom;verticalAlign=top;html=1;shadow=0;dashed=0;strokeWidth=1;shape=mxgraph.android.phone2;strokeColor=#c0c0c0;" vertex="1" parent="1">
          <mxGeometry x="180" y="75" width="200" height="390" as="geometry" />
        </mxCell>
        <mxCell id="3ZL1Tjc2D25S1oqH2oYp-24" value="" style="strokeWidth=1;shadow=0;dashed=0;align=center;html=1;shape=mxgraph.mockup.forms.rrect;rSize=0;strokeColor=#999999;fillColor=#ffffff;" vertex="1" parent="1">
          <mxGeometry x="200" y="160" width="160" height="200" as="geometry" />
        </mxCell>
        <mxCell id="3ZL1Tjc2D25S1oqH2oYp-25" value="" style="strokeWidth=1;shadow=0;dashed=0;align=center;html=1;shape=mxgraph.mockup.forms.anchor;fontSize=12;fontColor=#666666;align=left;resizeWidth=1;spacingLeft=0;" vertex="1" parent="3ZL1Tjc2D25S1oqH2oYp-24">
          <mxGeometry width="80" height="20" relative="1" as="geometry">
            <mxPoint x="10" y="10" as="offset" />
          </mxGeometry>
        </mxCell>
        <mxCell id="3ZL1Tjc2D25S1oqH2oYp-29" value="" style="strokeWidth=1;shadow=0;dashed=0;align=center;html=1;shape=mxgraph.mockup.forms.anchor;fontSize=12;fontColor=#666666;align=left;resizeWidth=1;spacingLeft=0;" vertex="1" parent="3ZL1Tjc2D25S1oqH2oYp-24">
          <mxGeometry width="80" height="20" relative="1" as="geometry">
            <mxPoint x="10" y="95" as="offset" />
          </mxGeometry>
        </mxCell>
        <mxCell id="3ZL1Tjc2D25S1oqH2oYp-7" value="&lt;h5&gt;&lt;font color=&quot;#c2c2c2&quot; face=&quot;Tahoma&quot;&gt;Username&lt;/font&gt;&lt;/h5&gt;" style="strokeWidth=1;shadow=0;dashed=0;align=center;html=1;shape=mxgraph.mockup.forms.pwField;strokeColor=#878787;mainText=;align=left;fontColor=#666666;fontSize=17;spacingLeft=3;" vertex="1" parent="3ZL1Tjc2D25S1oqH2oYp-24">
          <mxGeometry x="5" y="20.003913043478256" width="150" height="26.08695652173913" as="geometry" />
        </mxCell>
        <mxCell id="3ZL1Tjc2D25S1oqH2oYp-8" value="&lt;font color=&quot;#878787&quot;&gt;********&lt;/font&gt;" style="strokeWidth=1;shadow=0;dashed=0;align=center;html=1;shape=mxgraph.mockup.forms.pwField;strokeColor=#999999;mainText=;align=left;fontColor=#666666;fontSize=17;spacingLeft=3;" vertex="1" parent="3ZL1Tjc2D25S1oqH2oYp-24">
          <mxGeometry x="5" y="60" width="150" height="30" as="geometry" />
        </mxCell>
        <mxCell id="3ZL1Tjc2D25S1oqH2oYp-22" value="Cadastrar" style="strokeWidth=1;shadow=0;dashed=0;align=center;html=1;shape=mxgraph.mockup.forms.anchor;fontSize=12;fontColor=#9999ff;align=left;spacingLeft=0;fontStyle=4;resizeWidth=1;" vertex="1" parent="3ZL1Tjc2D25S1oqH2oYp-24">
          <mxGeometry x="5" y="90" width="150" height="20" as="geometry" />
        </mxCell>
        <mxCell id="3ZL1Tjc2D25S1oqH2oYp-23" value="" style="shape=line;strokeColor=#ddeeff;strokeWidth=2;html=1;resizeWidth=1;" vertex="1" parent="3ZL1Tjc2D25S1oqH2oYp-24">
          <mxGeometry x="17.5" y="110" width="125" height="10" as="geometry" />
        </mxCell>
        <mxCell id="3ZL1Tjc2D25S1oqH2oYp-21" value="Login" style="strokeWidth=1;shadow=0;dashed=0;align=center;html=1;shape=mxgraph.mockup.forms.rrect;rSize=5;strokeColor=#6666FF;fontColor=#333333;fillColor=#f5f5f5;fontSize=16;fontStyle=1;" vertex="1" parent="3ZL1Tjc2D25S1oqH2oYp-24">
          <mxGeometry x="40" y="120" width="80" height="30" as="geometry" />
        </mxCell>
        <mxCell id="3ZL1Tjc2D25S1oqH2oYp-54" value="&lt;font color=&quot;#ffffff&quot;&gt;&lt;span style=&quot;font-size: 15px;&quot;&gt;&lt;b&gt;2&lt;/b&gt;&lt;/span&gt;&lt;/font&gt;" style="ellipse;whiteSpace=wrap;html=1;aspect=fixed;fillColor=#000000;" vertex="1" parent="3ZL1Tjc2D25S1oqH2oYp-24">
          <mxGeometry x="60" y="90" width="20" height="20" as="geometry" />
        </mxCell>
        <mxCell id="3ZL1Tjc2D25S1oqH2oYp-64" value="&lt;font color=&quot;#ffffff&quot;&gt;&lt;span style=&quot;font-size: 15px;&quot;&gt;&lt;b&gt;3&lt;/b&gt;&lt;/span&gt;&lt;/font&gt;" style="ellipse;whiteSpace=wrap;html=1;aspect=fixed;fillColor=#000000;" vertex="1" parent="3ZL1Tjc2D25S1oqH2oYp-24">
          <mxGeometry x="110" y="140" width="20" height="20" as="geometry" />
        </mxCell>
        <mxCell id="3ZL1Tjc2D25S1oqH2oYp-41" value="&lt;br&gt;1) Imagem de fundo&lt;br&gt;&lt;br&gt;2) Vai para a tela de cadastro&lt;br&gt;&lt;br&gt;3) Se usuario e senha estiver correta salva o usuario para nÃ£o precisar novo login a menos que solicite.&lt;br&gt;&lt;br&gt;&lt;br&gt;&lt;div&gt;&lt;br&gt;&lt;/div&gt;" style="text;html=1;spacing=5;spacingTop=-20;whiteSpace=wrap;overflow=hidden;rounded=0;" vertex="1" parent="1">
          <mxGeometry x="430" y="105" width="220" height="345" as="geometry" />
        </mxCell>
        <mxCell id="3ZL1Tjc2D25S1oqH2oYp-45" value="&lt;b&gt;&lt;font color=&quot;#ffffff&quot; style=&quot;font-size: 15px;&quot;&gt;1&lt;/font&gt;&lt;/b&gt;" style="ellipse;whiteSpace=wrap;html=1;aspect=fixed;fillColor=#000000;" vertex="1" parent="1">
          <mxGeometry x="200" y="120" width="20" height="20" as="geometry" />
        </mxCell>
      </root>
    </mxGraphModel>
  </diagram>
</mxfile>
